#define close_width 16
#define close_height 16
#define close_x_hot 7
#define close_y_hot 7
static unsigned char close_bits[] = {
 0x00, 0x00, 0x00, 0x00, 0x0C, 0x18, 0x1C, 0x1C, 0x38, 0x0E, 0x70, 0x07,
 0xE0, 0x03, 0xC0, 0x01, 0xE0, 0x03, 0x70, 0x07, 0x38, 0x0E, 0x1C, 0x1C,
 0x0C, 0x18, 0x00, 0x00, 0x00, 0x00, 0x00, 0x00 };
