/* XPM */
static char * brave_xpm[] = {
"64 64 363 2",
"  	c None",
". 	c #FF3C14",
"+ 	c #FF3718",
"@ 	c #FF3717",
"# 	c #FF3615",
"$ 	c #FF3514",
"% 	c #FF3413",
"& 	c #FF3312",
"* 	c #FF3211",
"= 	c #FF3210",
"- 	c #FF310E",
"; 	c #FF300E",
"> 	c #FF2E0C",
", 	c #FF2D0C",
"' 	c #FF2C0A",
") 	c #FF2B09",
"! 	c #FF2906",
"~ 	c #FF2805",
"{ 	c #FF2202",
"] 	c #FF3E14",
"^ 	c #FF3819",
"/ 	c #FF3617",
"( 	c #FF3412",
"_ 	c #FF3311",
": 	c #FF3110",
"< 	c #FF300D",
"[ 	c #FF2D0B",
"} 	c #FF2A07",
"| 	c #FF2503",
"1 	c #FF2201",
"2 	c #FF4114",
"3 	c #FF3919",
"4 	c #FF3818",
"5 	c #FF3515",
"6 	c #FF2E0D",
"7 	c #FF2B07",
"8 	c #FF2704",
"9 	c #FF4112",
"0 	c #FF391A",
"a 	c #FF2A06",
"b 	c #FF2705",
"c 	c #FF2303",
"d 	c #FF4412",
"e 	c #FF3C1C",
"f 	c #FF3A1B",
"g 	c #FF2C09",
"h 	c #FF2403",
"i 	c #FF2302",
"j 	c #FF4610",
"k 	c #FF2806",
"l 	c #FF2402",
"m 	c #FF2001",
"n 	c #FF4C13",
"o 	c #FF461B",
"p 	c #FF4320",
"q 	c #FF4022",
"r 	c #FF4021",
"s 	c #FF411E",
"t 	c #FF4219",
"u 	c #FF3D1E",
"v 	c #FF3C1E",
"w 	c #FF3A1A",
"x 	c #FF2101",
"y 	c #FF1F01",
"z 	c #FF1F00",
"A 	c #FF1E00",
"B 	c #FF1C00",
"C 	c #FF5300",
"D 	c #FF5003",
"E 	c #FF5004",
"F 	c #FF4D06",
"G 	c #FF4B0D",
"H 	c #FF4518",
"I 	c #FF3F20",
"J 	c #FF3E1F",
"K 	c #FF2504",
"L 	c #FF1A00",
"M 	c #FF1B00",
"N 	c #FF5400",
"O 	c #FF5201",
"P 	c #FF470E",
"Q 	c #FF4D04",
"R 	c #FF3914",
"S 	c #FF3D18",
"T 	c #FF310D",
"U 	c #FF8D67",
"V 	c #FF6943",
"W 	c #FF4E25",
"X 	c #FF3D19",
"Y 	c #FF3613",
"Z 	c #FF5731",
"` 	c #FFA088",
" .	c #FFF1EF",
"..	c #FFFFFF",
"+.	c #FFC5BA",
"@.	c #FF684F",
"#.	c #FF4123",
"$.	c #FF6750",
"%.	c #FF462A",
"&.	c #FFAC82",
"*.	c #FFE0D7",
"=.	c #FFAB93",
"-.	c #FF8462",
";.	c #FF7955",
">.	c #FFA992",
",.	c #FFF6F4",
"'.	c #FFCBC3",
").	c #FF7762",
"!.	c #FF654D",
"~.	c #FF8676",
"{.	c #FFBDB4",
"].	c #FFF6F6",
"^.	c #FFE5E2",
"/.	c #FF894C",
"(.	c #FFFEFE",
"_.	c #FFC6BE",
":.	c #FF6C1E",
"<.	c #FFF5F0",
"[.	c #FF9789",
"}.	c #FF5A02",
"|.	c #FFDFCF",
"1.	c #FF634B",
"2.	c #FFB895",
"3.	c #FFEFEE",
"4.	c #FF8A4D",
"5.	c #FFEFE8",
"6.	c #FFDDCC",
"7.	c #FFCDB4",
"8.	c #FFBF9F",
"9.	c #FFB996",
"0.	c #FFCCB3",
"a.	c #FFF0EA",
"b.	c #FFFBFB",
"c.	c #FFCFC8",
"d.	c #FFADA2",
"e.	c #FFA093",
"f.	c #FFA599",
"g.	c #FFB4AA",
"h.	c #FFC8C0",
"i.	c #FFDEDA",
"j.	c #FFF9F9",
"k.	c #FFC8C1",
"l.	c #FF610B",
"m.	c #FFEFE7",
"n.	c #FF9864",
"o.	c #FF5D05",
"p.	c #FF762D",
"q.	c #FFA77C",
"r.	c #FFE0D2",
"s.	c #FFF3F2",
"t.	c #FFADA1",
"u.	c #FF6751",
"v.	c #FF4F34",
"w.	c #FFB7AD",
"x.	c #FF8372",
"y.	c #FFC2A4",
"z.	c #FFF8F5",
"A.	c #FFC2A3",
"B.	c #FF8240",
"C.	c #FF4E00",
"D.	c #FFC6B0",
"E.	c #FF431F",
"F.	c #FF3212",
"G.	c #FF8877",
"H.	c #FFDCD7",
"I.	c #FFF7F6",
"J.	c #FF3A1C",
"K.	c #FF7A34",
"L.	c #FFEBE1",
"M.	c #FFAC83",
"N.	c #FF6B1B",
"O.	c #FFBBA0",
"P.	c #FF340C",
"Q.	c #FF6B55",
"R.	c #FFC0B7",
"S.	c #FFFCFC",
"T.	c #FFB6AC",
"U.	c #FF5500",
"V.	c #FFC0A0",
"W.	c #FFFDFD",
"X.	c #FFC8AD",
"Y.	c #FF6715",
"Z.	c #FF4D00",
"`.	c #FFDBCD",
" +	c #FF5C3E",
".+	c #FF7C69",
"++	c #FFEBE8",
"@+	c #FFC7AB",
"#+	c #FFECE2",
"$+	c #FF4F00",
"%+	c #FFFAF8",
"&+	c #FF8772",
"*+	c #FF945D",
"=+	c #FF691A",
"-+	c #FF6E29",
";+	c #FFB1A3",
">+	c #FFD7D2",
",+	c #FFBA98",
"'+	c #FF905E",
")+	c #FFDAD4",
"!+	c #FF816E",
"~+	c #FFEBE9",
"{+	c #FF3E20",
"]+	c #FFC4A6",
"^+	c #FFA071",
"/+	c #FFB18E",
"(+	c #FFEFED",
"_+	c #FFF0EF",
":+	c #FF4529",
"<+	c #FF5600",
"[+	c #FFCCB2",
"}+	c #FFE8DD",
"|+	c #FF5801",
"1+	c #FFD1BD",
"2+	c #FF4A2D",
"3+	c #FF806D",
"4+	c #FFF4F3",
"5+	c #FFD4BE",
"6+	c #FF8E53",
"7+	c #FFF0EB",
"8+	c #FF745F",
"9+	c #FFDFDB",
"0+	c #FFF8F8",
"a+	c #FF5840",
"b+	c #FF5D04",
"c+	c #FFDBC9",
"d+	c #FFE0D0",
"e+	c #FF5F09",
"f+	c #FF9687",
"g+	c #FF6F5B",
"h+	c #FF644D",
"i+	c #FF6009",
"j+	c #FFE2D3",
"k+	c #FFA97E",
"l+	c #FF6819",
"m+	c #FFA395",
"n+	c #FF2102",
"o+	c #FF6511",
"p+	c #FFE8DC",
"q+	c #FFDCCB",
"r+	c #FF630D",
"s+	c #FF9566",
"t+	c #FFEDE7",
"u+	c #FFFAF9",
"v+	c #FFD3CA",
"w+	c #FFA08F",
"x+	c #FF7E6B",
"y+	c #FF7C68",
"z+	c #FF6D1F",
"A+	c #FFF3EE",
"B+	c #FFEEE6",
"C+	c #FF8749",
"D+	c #FF4700",
"E+	c #FF4100",
"F+	c #FF4C0E",
"G+	c #FF521F",
"H+	c #FF3301",
"I+	c #FF2800",
"J+	c #FF2200",
"K+	c #FF2C0B",
"L+	c #FFB2A7",
"M+	c #FFAE86",
"N+	c #FFC4A7",
"O+	c #FF5D10",
"P+	c #FF3A00",
"Q+	c #FF3500",
"R+	c #FF2E00",
"S+	c #FF2900",
"T+	c #FF2100",
"U+	c #FF725D",
"V+	c #FFEEEC",
"W+	c #FFF5F4",
"X+	c #FFB894",
"Y+	c #FFF3EF",
"Z+	c #FF8F61",
"`+	c #FF441A",
" @	c #FFC6BC",
".@	c #FF5701",
"+@	c #FFBBA3",
"@@	c #FF4001",
"#@	c #FF6842",
"$@	c #FF7561",
"%@	c #FF8444",
"&@	c #FF906C",
"*@	c #FF3700",
"=@	c #FFF5F3",
"-@	c #FFC4BC",
";@	c #FFAB81",
">@	c #FFF2EF",
",@	c #FF551C",
"'@	c #FF3400",
")@	c #FFB09D",
"!@	c #FFF6F5",
"~@	c #FFB18A",
"{@	c #FFF5F2",
"]@	c #FF6B34",
"^@	c #FF3C00",
"/@	c #FF3200",
"(@	c #FFBFB2",
"_@	c #FF884A",
":@	c #FFEDE6",
"<@	c #FF6B2C",
"[@	c #FF2B00",
"}@	c #FFAB9C",
"|@	c #FFC9C1",
"1@	c #FFDCCA",
"2@	c #FFD1BB",
"3@	c #FF5F11",
"4@	c #FF4600",
"5@	c #FF5A41",
"6@	c #FFEEE5",
"7@	c #FFE6D9",
"8@	c #FF4A0B",
"9@	c #FF5A28",
"0@	c #FF2D00",
"a@	c #FFACA0",
"b@	c #FF8F7F",
"c@	c #FF6919",
"d@	c #FFCAB0",
"e@	c #FFF4EF",
"f@	c #FFD3BD",
"g@	c #FF8E54",
"h@	c #FF814E",
"i@	c #FFCAB7",
"j@	c #FFE6E0",
"k@	c #FF9680",
"l@	c #FF3913",
"m@	c #FF9F92",
"n@	c #FFE9E6",
"o@	c #FFE0DC",
"p@	c #FF735E",
"q@	c #FF9662",
"r@	c #FFE7DC",
"s@	c #FFA89C",
"t@	c #FF391B",
"u@	c #FF925B",
"v@	c #FFFAFA",
"w@	c #FFA598",
"x@	c #FF3414",
"y@	c #FF7225",
"z@	c #FFF8F7",
"A@	c #FF8B7B",
"B@	c #FF9081",
"C@	c #FFD6C1",
"D@	c #FF6D58",
"E@	c #FFB28C",
"F@	c #FFDDD9",
"G@	c #FF4225",
"H@	c #FF8B51",
"I@	c #FF6922",
"J@	c #FFE2D7",
"K@	c #FF8B76",
"L@	c #FF5005",
"M@	c #FFC6B2",
"N@	c #FF6542",
"O@	c #FF4200",
"P@	c #FFA083",
"Q@	c #FFCABC",
"R@	c #FF5123",
"S@	c #FF4000",
"T@	c #FF4900",
"U@	c #FF3600",
"V@	c #FF3000",
"                                            . + @ # $ % & * = - ; > , ' ' ) ! ! ! ~ {                                           ",
"                                          ] ^ + / # $ % ( _ : ; < > [ [ ) } } ! ~ ~ | 1                                         ",
"                                        2 3 3 4 # 5 $ % & * = - ; 6 [ ' ' 7 } ! ~ 8 8 |                                         ",
"                                      9 0 0 4 + @ # $ % & * : ; < > , ' ) ) a ! ! b 8 | c                                       ",
"                                    d e f 0 ^ @ / # % % & * = : < > [ [ g ) a ! ~ b | | h i                                     ",
"                                  j e f 0 0 4 4 @ 5 $ % & _ : - 6 6 [ ' ) ) a ! k 8 8 h h l m                                   ",
"                    n o p q r s t u v e w 0 ^ + # # $ % & * = - < > [ [ ) ) a ! ~ ~ 8 | h i { m x y z A B B                     ",
"                  C D E F G H I J u u f f ^ ^ 4 / $ $ % _ * = ; < > > ' ' } a a k 8 K | i i i x x y A B L L M                   ",
"                N N N N N N N O P u e e f 0 ^ @ @ 5 $ % & * : - ; > [ [ ) ) } ! ! b 8 | h i { x B L M L M L M M                 ",
"              N N N N N N N N N N Q u f 0 0 4 + @ $ $ % & _ * R S T , ' ) ) a ! k 8 8 h l i x L L M L L L L L L L               ",
"              N N N N N N N N N N N U V W X 4 4 # 5 $ Y Z `  .......+.@.* ) a ! ~ 8 8 ) #.$.%.L M L L M L L M L L M             ",
"            N N N N N N N N N N N &.........*.=.-.;.>.,...................'.).!.~.{.].......^.6 L L L L L M L M L M M           ",
"            N N N N N N N N N N /.(..........................................................._.A L L L M L L L L M M           ",
"            N N N N N N N N N :.<...............................................................[.L L M L L M L M L             ",
"              N N N N N N N }.|.................................................................(.1.L L L L M L L B             ",
"              N N N N N N N 2.....................................................................3.# L L L L M L M             ",
"              N N N N N N 4.........5.6.7.8.9.9.0.a.........................b.c.d.e.f.g.h.i.j.......k.M M M M L L M             ",
"            N N N N N N l.a.......m.n.o.N N N N N N p.q.r.............s.t.u.! L M L L L L v.w.........x.L L L L M M             ",
"            N N N N N N y.............z.A.B.N N N N N C C.D...........E.M L L L L L F.G.H.............I.J.L M L L L M           ",
"          N N N N N N K.....................L.M.N.N N C C.O...........P.M L L m Q.R.S...................T.L L M L M M           ",
"          U.N N N N N V.........................W.X.Y.N Z.`........... +M L .+++........................W.; L L M L L           ",
"          U.N N N N N @+............................#+}.$+%+..........&+M G...............................^ M L L M L           ",
"          U.N N N N N *+..............................=+-+............;+M T.............................>+M L M L L B           ",
"            N N N N N N ,+..........................L.N '+............)+M !+..........................~+{+L L L L L B           ",
"            N N N N N N U.]+........................^+C /+............b.1 ! (+......................_+:+M L M M M L             ",
"            N N N N N N N <+[+....................}+|+C 1+..............2+L 3+....................4+v.L L L L L L M             ",
"              N N N N N N N }.5+..................6+N C 7+..............8+L y 9+................0+a+L M L L M L L M             ",
"              N N N N N N N N b+c+..............d+N N e+................f+L L g+..............b.h+L L L L M L M L B             ",
"              N N N N N N N N N i+j+............k+N N l+................m+L L n+............W.g+M L L L M L L L L               ",
"              N N N N N N N N N N o+p+..........q+r+N C s+D.t+....u+v+w+f L L x+............y+L L L L M L L M L M               ",
"                N N N N N N N N N N z+A+..........B+C+C C.D+E+F+G+H+I+J+M K+L+............f+L L L M L L L L M L L               ",
"                N N N N N N N N N N N M+..............N+O+D+E+P+Q+R+S+T+U+V+............W+y M L L L M L L L L M M               ",
"                N N N N N N N N N N N X+................Y+Z+E+P+Q+R+`+ @................S.h L L L M L L M M M L                 ",
"                U.N N N N N N N N N .@5.....................+@@@Q+#@ .....................$@L M L L L L L L L L                 ",
"                  N N N N N N N N N %@........................&@*@=@......................-@L L M L M M L L M M                 ",
"                  N N N N N N N N N ;@......................>@,@'@)@......................!@L L L L L L M L L A                 ",
"                  N N N N N N N N N ~@....................{@]@^@Q+/@(@....................S.M M L M L L L L L                   ",
"                  U.N N N N N N N N _@..................:@<@E+P+'@R+[@}@..................|@L L L L L M M L B                   ",
"                    N N N N N N N N <+1@..............2@3@4@E+^@'@R+I+J+y+!@............(.5@L L L M L L L M M                   ",
"                    N N N N N N N N N z+6@........7@6+C Z.D+E+8@9@0@I+J+M / a@S.........b@L M L L L L M L L B                   ",
"                    N N N N N N N N N N c@d@e@f@g@<+N C $+h@i@b...j@k@l@M L L v m@n@o@p@M L L M L L M L M L                     ",
"                    U.N N N N N N N N N N N N N N N <+q@r@............j.s@t@L L L L M L L L L L L M L L L L                     ",
"                      N N N N N N N N N N N N N U.u@p+....................v@w@x@L L L L L L L L M L L M L L                     ",
"                      U.N N N N N N N N N N N y@j+............................z@A@L L L L M L L L L L L L                       ",
"                      N N N N N N N N N N N N z+5...............................B@M L M L L L L M L L L M                       ",
"                        N N N N N N N N N N N N o+C@........................W+D@L L L L L L M L L L L M L                       ",
"                        N N N N N N N N N N N N N <+E@....................F@G@L L L L L L L L L L M L L M                       ",
"                        N N N N N N N N N N N N N N N H@{@..............w.b L L L M L L L L M L L L M L                         ",
"                        U.N N N N N N N N N N N N N N C I@J@........S.K@M L L L L L L L M L L L L M L L                         ",
"                          N N N N N N N N N N N N N N C Z.L@M@....>@N@J+M L L L M L L L L L L M L L L L                         ",
"                          N N N N N N N N N N N N N N C C.D+O@P@Q@R@S+J+M L L L L L L L M L L L M L M                           ",
"                            N N N N N N N N N N N N N C C.4@E+P+'@R+I+J+M L L L L L L L L L L L L L                             ",
"                              U.N N N N N N N N N N N N Z.D+E+^@Q+R+I+T+M L L L L L L M L L L M L                               ",
"                                U.N N N N N N N N N N C Z.D+E+P+'@R+I+J+M L L L L M L L L M L L                                 ",
"                                  U.N N N N N N N N N C C.4@E+^@'@R+I+J+M L L L L L L L L L M                                   ",
"                                      N N N N N N N N C Z.D+E+P+Q+0@I+J+M L L L L L L L L B                                     ",
"                                        N N N N N N N C C.4@E+^@Q+R+S+T+M L L L L L L L                                         ",
"                                            U.N N N N C C.4@E+P+'@R+I+J+M L L L L L B                                           ",
"                                              N N N N C Z.D+E+P+Q+R+I+J+M L L L L                                               ",
"                                                  N N C Z.D+S@P+Q+R+I+J+M L L M                                                 ",
"                                                    N C C.4@E+^@Q+R+S+T+B L                                                     ",
"                                                        Z.D+E+P+'@R+I+J+B                                                       ",
"                                                          T@E+P+'@R+S+                                                          ",
"                                                              ^@U@V@                                                            "};
