/* XPM */
static char * steam_xpm[] = {
"64 64 229 2",
"  	c None",
". 	c #2D3852",
"+ 	c #2F3A53",
"@ 	c #2E3953",
"# 	c #313B54",
"$ 	c #4B5366",
"% 	c #838793",
"& 	c #AFB0B5",
"* 	c #B8B9BE",
"= 	c #B7B9BD",
"- 	c #A5A8AE",
"; 	c #717684",
"> 	c #40485D",
", 	c #545B6C",
"' 	c #B2B4BA",
") 	c #E5E5E7",
"! 	c #EFF0F0",
"~ 	c #F2F2F2",
"{ 	c #F1F1F1",
"] 	c #EEEFEF",
"^ 	c #D9DADC",
"/ 	c #999CA4",
"( 	c #3F475D",
"_ 	c #303A54",
": 	c #838690",
"< 	c #DFE0E2",
"[ 	c #F0F0F0",
"} 	c #CDCED1",
"| 	c #595F70",
"1 	c #2F3953",
"2 	c #888B95",
"3 	c #E9E9EA",
"4 	c #EFEFEF",
"5 	c #DEDEE0",
"6 	c #CACCD0",
"7 	c #CED0D3",
"8 	c #E5E6E7",
"9 	c #D8D9DB",
"0 	c #656B7A",
"a 	c #E4E5E6",
"b 	c #C6C7CB",
"c 	c #727784",
"d 	c #42495E",
"e 	c #3C455B",
"f 	c #495064",
"g 	c #8E929B",
"h 	c #CCCDD1",
"i 	c #3E475D",
"j 	c #374058",
"k 	c #C5C7CB",
"l 	c #A3A6AD",
"m 	c #606676",
"n 	c #ADAFB4",
"o 	c #C0C2C7",
"p 	c #BDBFC4",
"q 	c #9B9EA6",
"r 	c #485063",
"s 	c #4F5669",
"t 	c #C9CBCE",
"u 	c #6C7180",
"v 	c #EDEEEE",
"w 	c #B7B9BF",
"x 	c #39435A",
"y 	c #93969F",
"z 	c #E8E8E9",
"A 	c #F1F1F2",
"B 	c #F0F1F1",
"C 	c #D8D9DC",
"D 	c #6B707E",
"E 	c #B0B2B7",
"F 	c #565C6E",
"G 	c #7A7E8A",
"H 	c #EBEBEC",
"I 	c #484F63",
"J 	c #8F939C",
"K 	c #707583",
"L 	c #364057",
"M 	c #C8C9CE",
"N 	c #C1C3C7",
"O 	c #3A435A",
"P 	c #C5C6CB",
"Q 	c #495164",
"R 	c #E6E6E7",
"S 	c #A5A7AD",
"T 	c #3D465B",
"U 	c #B0B2B6",
"V 	c #444B5F",
"W 	c #E7E7E8",
"X 	c #3D455C",
"Y 	c #CED0D4",
"Z 	c #B7B8BD",
"` 	c #707482",
" .	c #EAEBEB",
"..	c #ABADB2",
"+.	c #464D61",
"@.	c #CBCCD1",
"#.	c #454D61",
"$.	c #D3D4D7",
"%.	c #BABCC0",
"&.	c #3D455B",
"*.	c #D1D3D6",
"=.	c #ACAEB4",
"-.	c #424A5E",
";.	c #DEDFE1",
">.	c #AEAFB5",
",.	c #323D55",
"'.	c #ADB0B6",
").	c #DBDCDF",
"!.	c #444C60",
"~.	c #E7E8E9",
"{.	c #606575",
"].	c #727885",
"^.	c #828792",
"/.	c #2E3852",
"(.	c #80848E",
"_.	c #ECECED",
":.	c #9A9CA5",
"<.	c #BBBCC2",
"[.	c #C6C8CC",
"}.	c #E5E5E6",
"|.	c #4B5265",
"1.	c #505769",
"2.	c #DBDCDE",
"3.	c #E6E7E8",
"4.	c #797D89",
"5.	c #3D465C",
"6.	c #989BA3",
"7.	c #D1D2D5",
"8.	c #E6E6E8",
"9.	c #C4C6CA",
"0.	c #787D89",
"a.	c #B1B3B9",
"b.	c #2F3A54",
"c.	c #BCBDC2",
"d.	c #9A9DA5",
"e.	c #575D6E",
"f.	c #B8BABF",
"g.	c #DFDFE1",
"h.	c #535A6C",
"i.	c #B0B2B8",
"j.	c #5F6575",
"k.	c #333D55",
"l.	c #BABCC1",
"m.	c #B1B2B7",
"n.	c #C1C3C8",
"o.	c #828690",
"p.	c #2E3952",
"q.	c #EAEAEB",
"r.	c #BCBEC3",
"s.	c #6B707F",
"t.	c #363F57",
"u.	c #5E6474",
"v.	c #E2E2E4",
"w.	c #E4E4E6",
"x.	c #878B95",
"y.	c #EDEDED",
"z.	c #394259",
"A.	c #C9CACD",
"B.	c #EDEDEE",
"C.	c #646A79",
"D.	c #EEEEEF",
"E.	c #868A94",
"F.	c #3E475C",
"G.	c #495063",
"H.	c #686E7D",
"I.	c #A8ABB2",
"J.	c #D7D8DB",
"K.	c #C7C9CD",
"L.	c #AFB1B6",
"M.	c #6B717F",
"N.	c #EFEFF0",
"O.	c #D4D5D8",
"P.	c #9C9FA7",
"Q.	c #BBBDC2",
"R.	c #6F7481",
"S.	c #B7B9BE",
"T.	c #C3C4C9",
"U.	c #ADAFB6",
"V.	c #E1E2E4",
"W.	c #ABAEB4",
"X.	c #5C6273",
"Y.	c #595F71",
"Z.	c #BEC0C4",
"`.	c #DCDDDF",
" +	c #A4A6AE",
".+	c #474E62",
"++	c #BFC1C5",
"@+	c #5A6071",
"#+	c #364058",
"$+	c #4B5266",
"%+	c #C3C5C9",
"&+	c #C8CACD",
"*+	c #5D6373",
"=+	c #434B5F",
"-+	c #8D909A",
";+	c #CFD1D4",
">+	c #5F6676",
",+	c #3B445A",
"'+	c #D5D6D8",
")+	c #52596B",
"!+	c #646B7B",
"~+	c #898D97",
"{+	c #E1E2E3",
"]+	c #848994",
"^+	c #D0D1D4",
"/+	c #555C6E",
"(+	c #323C55",
"_+	c #D7D7DA",
":+	c #666C7A",
"<+	c #585E70",
"[+	c #9A9CA4",
"}+	c #B0B1B6",
"|+	c #858994",
"1+	c #8F929B",
"2+	c #E9EAEB",
"3+	c #E3E4E5",
"4+	c #B2B5BB",
"5+	c #B5B7BC",
"6+	c #808591",
"7+	c #707684",
"8+	c #92959E",
"9+	c #E7E7E9",
"0+	c #384259",
"a+	c #767A86",
"b+	c #495165",
"c+	c #888C96",
"d+	c #B3B4B9",
"e+	c #ABACB2",
"f+	c #3C445B",
"                                                                                                                                ",
"                                                                                                                                ",
"                                                                                                                                ",
"                                                                                                                                ",
"                                                                                                                                ",
"                                                                                                                                ",
"                                                                                                                                ",
"                                                                                                                                ",
"                                                                                                                                ",
"                                                      . . . . . . . . . .                                                       ",
"                                                . . . . . . . . . . . . . . . .                                                 ",
"                                            . . . . . . . . . . . . . . . . . . . .                                             ",
"                                        . . . . . . . . . . . . . . . . . . . . . . . .                                         ",
"                                    . . . . . . . . . . . . . . . . . . . . . . . . . . . .                                     ",
"                                  . . . . . . . . . . . . . . . . . . . . . + @ . . . . . . .                                   ",
"                                . . . . . . . . . . . . . . . . . . # $ % & * = - ; > @ . . . .                                 ",
"                              . . . . . . . . . . . . . . . . . @ , ' ) ! ~ ~ ~ { ] ^ / ( . . . .                               ",
"                            . . . . . . . . . . . . . . . . . _ : < { ~ ~ ~ ~ ~ ~ ~ ~ [ } | . . . .                             ",
"                          . . . . . . . . . . . . . . . . . 1 2 3 ~ ~ ~ 4 5 6 7 8 [ ~ ~ ~ 9 | . . . .                           ",
"                          . . . . . . . . . . . . . . . . . 0 a ~ ~ ! b c d e e f g ^ { ~ ~ h i . . .                           ",
"                        . . . . . . . . . . . . . . . . . j k ~ ~ 4 l e m n o p q r s t { ~ [ / @ . . .                         ",
"                        . . . . . . . . . . . . . . . . . u v ~ { w x y z A ~ ~ B C D s ^ ~ ~ ^ > . . .                         ",
"                      . . . . . . . . . . . . . . . . . @ E ~ ~ 8 F G H ~ ~ ~ ~ ~ ~ C I J [ ~ ] K . . . .                       ",
"                      . . . . . . . . . . . . . . . . . L M ~ ~ N O P ~ ~ ~ ~ ~ ~ ~ B q Q R ~ { S . . . .                       ",
"                    . . . . . . . . . . . . . . . . . . T C ~ ~ U V W ~ ~ ~ ~ ~ ~ ~ ~ p X Y ~ ~ Z @ . . . .                     ",
"                    . . . . . . . . . . . . . . . . . . `  .~ A ..+.H ~ ~ ~ ~ ~ ~ ~ ~ o e @.~ ~ * + . . . .                     ",
"                    . . . . . . . . . . . . . . . . . #.$.~ ~ ~ %.&.*.~ ~ ~ ~ ~ ~ ~ { =.-.;.~ ~ >.. . . . .                     ",
"                  . . . . . . . . . . . . . . . . . ,.'.{ ~ ~ ~ ).!./ [ ~ ~ ~ ~ ~ ~ ~.{.].4 ~ ! ^.. . . . . .                   ",
"                  . . . . . . . . . . . . . . . . /.(._.~ ~ ~ ~ [ :.&.<.[ ~ ~ ~ ~ H y e [.~ ~ }.|.. . . . . .                   ",
"                  . . . . . . . . . . . . . . . . 1.2.~ ~ ~ ~ ~ ~ 3.4.5.6.7. .8.9.0.x l [ ~ { a.# . . . . . .                   ",
"                  b.. . . . . . . . . . . . . . j c.{ ~ ~ ~ ~ ~ ~ ~ 3.d.!.&.+.V O e.f.4 ~ ~ g.h.. . . . . . .                   ",
"                  i.j.k.. . . . . . . . . . . @ J 4 ~ ~ ~ ~ ~ ~ ~ ~ ~ [ ).l...m.n.R { ~ ~ 3 o.p.. . . . . . .                   ",
"                  { q.r.s.t.. . . . . . . . . u.v.~ ~ ~ ~ ~ ~ ~ ~ ~ ~ ~ ~ ~ A ~ ~ ~ ~ ~ w.x._ . . . . . . . .                   ",
"                  ~ ~ ~ y.9.0.z.. . . . . . &.A.~ ~ ~ ~ ~ ~ ~ ~ ~ ~ ~ ~ ~ ~ ~ ~ ~ ~ B.9.C.@ . . . . . . . . .                   ",
"                  ~ ~ ~ ~ ~ D.h E.F./.,.G.H.I.[ ~ ~ ~ ~ ~ ~ ~ ~ ~ ~ ~ ~ ~ ~  .J.K.L.M.j . . . . . . . . . . .                   ",
"                  ~ ~ ~ ~ ~ ~ ~ N.O.P.Q.3.] B ~ ~ ~ ~ ~ ~ ~ ~ ~ ~ ~ ~ ~ { $.R.T t.@ . . . . . . . . . . . . .                   ",
"                  ~ ~ ~ ~ ~ ~ ~ ~ ~ { ~ [ k S.T.3.{ ~ ~ ~ ~ ~ ~ ~ ~ ~ _.U.#.. . . . . . . . . . . . . . . . .                   ",
"                    ~ ~ ~ ~ ~ ~ ~ ~ ~ ~ ~ V.W.X.Y.Z.[ ~ ~ ~ ~ ~ ~ { `.(.,.. . . . . . . . . . . . . . . . .                     ",
"                    ~ ~ ~ ~ ~ ~ ~ ~ ~ ~ ~ ~ { 8. +.+++{ ~ ~ ~ ~ 4 c.1.p.. . . . . . . . . . . . . . . . . .                     ",
"                    A ~ ~ ~ ~ ~ ~ ~ ~ ~ ~ ~ ~ ~ !  +@+3.~ ~ ~ v.J #+. . . . . . . . . . . . . . . . . . . .                     ",
"                      C [ ~ ~ ~ ~ ~ ~ ~ ~ ~ ~ ~ ~ a $+%+~ [ &+*+@ . . . . . . . . . . . . . . . . . . . .                       ",
"                      =+-+;+] ~ ~ ~ ~ ~ ~ ~ ~ ~ ~ D.>+= B I.&.. . . . . . . . . . . . . . . . . . . . . .                       ",
"                        . ,+4.'+~ ~ ~ ~ ~ ~ ~ ~ ~ H )+r.D.!+. . . . . . . . . . . . . . . . . . . . . .                         ",
"                        . . . ~+[ q._.~ ~ ~ ~ ~ ~ N f ).a I . . . . . . . . . . . . . . . . . . . . . .                         ",
"                          . . Q {+~.]+S.~.{ ~ N.^+/+P.[ l.(+. . . . . . . . . . . . . . . . . . . . .                           ",
"                          . . 1 d.N._+:+<+[+}+|+.+1+2+3+m . . . . . . . . . . . . . . . . . . . . . .                           ",
"                            . . z.4+N.8.5+6+7+8+[.] 9+x.@ . . . . . . . . . . . . . . . . . . . . .                             ",
"                              . . 0+d.< N.N.4 [ D.;+a++ . . . . . . . . . . . . . . . . . . . . .                               ",
"                                . . @ b+c+d+= e+; f+. . . . . . . . . . . . . . . . . . . . . .                                 ",
"                                  . . . . . 1 . . . . . . . . . . . . . . . . . . . . . . . .                                   ",
"                                    . . . . . . . . . . . . . . . . . . . . . . . . . . . .                                     ",
"                                        . . . . . . . . . . . . . . . . . . . . . . . .                                         ",
"                                            . . . . . . . . . . . . . . . . . . . .                                             ",
"                                                . . . . . . . . . . . . . . . .                                                 ",
"                                                      . . . . . . . . . .                                                       ",
"                                                                                                                                ",
"                                                                                                                                ",
"                                                                                                                                ",
"                                                                                                                                ",
"                                                                                                                                ",
"                                                                                                                                ",
"                                                                                                                                ",
"                                                                                                                                ",
"                                                                                                                                "};
