/* XPM */
static char * xfce_terminal_xpm[] = {
"64 64 238 2",
"  	c None",
". 	c #000000",
"+ 	c #000000",
"@ 	c #242424",
"# 	c #121212",
"$ 	c #141414",
"% 	c #121212",
"& 	c #1A1A1A",
"* 	c #171717",
"= 	c #1A1A1A",
"- 	c #000000",
"; 	c #161616",
"> 	c #1A1A1A",
", 	c #191919",
"' 	c #090909",
") 	c #0D0D0D",
"! 	c #080808",
"~ 	c #080808",
"{ 	c #090909",
"] 	c #040404",
"^ 	c #070707",
"/ 	c #060606",
"( 	c #040404",
"_ 	c #070707",
": 	c #090909",
"< 	c #0A0A0A",
"[ 	c #0A0A0A",
"} 	c #0B0B0B",
"| 	c #050505",
"1 	c #060606",
"2 	c #070707",
"3 	c #080808",
"4 	c #2A2A2A",
"5 	c #292929",
"6 	c #060606",
"7 	c #1F1F1F",
"8 	c #1B1B1B",
"9 	c #1C1C1C",
"0 	c #1D1D1D",
"a 	c #1E1E1E",
"b 	c #1F1F1F",
"c 	c #202020",
"d 	c #212121",
"e 	c #222222",
"f 	c #232323",
"g 	c #252525",
"h 	c #262626",
"i 	c #272727",
"j 	c #282828",
"k 	c #292929",
"l 	c #2A2A2A",
"m 	c #2B2B2B",
"n 	c #2C2C2C",
"o 	c #2D2D2D",
"p 	c #2F2F2F",
"q 	c #303030",
"r 	c #313131",
"s 	c #323232",
"t 	c #333333",
"u 	c #343434",
"v 	c #353535",
"w 	c #363636",
"x 	c #232323",
"y 	c #242424",
"z 	c #262626",
"A 	c #272727",
"B 	c #282828",
"C 	c #2D2D2D",
"D 	c #373737",
"E 	c #202020",
"F 	c #212121",
"G 	c #222222",
"H 	c #232323",
"I 	c #242424",
"J 	c #262626",
"K 	c #292929",
"L 	c #070707",
"M 	c #1F1F1F",
"N 	c #202020",
"O 	c #212121",
"P 	c #222222",
"Q 	c #232323",
"R 	c #242424",
"S 	c #252525",
"T 	c #262626",
"U 	c #272727",
"V 	c #1F1F1F",
"W 	c #202020",
"X 	c #212121",
"Y 	c #222222",
"Z 	c #242424",
"` 	c #3C3C3C",
" .	c #070707",
"..	c #1F1F1F",
"+.	c #212121",
"@.	c #202020",
"#.	c #565656",
"$.	c #1B1B1B",
"%.	c #1C1C1C",
"&.	c #1D1D1D",
"*.	c #1E1E1E",
"=.	c #1F1F1F",
"-.	c #212121",
";.	c #424242",
">.	c #1A1A1A",
",.	c #1F1F1F",
"'.	c #606060",
").	c #646464",
"!.	c #656565",
"~.	c #666666",
"{.	c #676767",
"].	c #686868",
"^.	c #696969",
"/.	c #6A6A6A",
"(.	c #6B6B6B",
"_.	c #6C6C6C",
":.	c #6D6D6D",
"<.	c #6E6E6E",
"[.	c #6F6F6F",
"}.	c #717171",
"|.	c #727272",
"1.	c #737373",
"2.	c #747474",
"3.	c #757575",
"4.	c #767676",
"5.	c #777777",
"6.	c #787878",
"7.	c #191919",
"8.	c #1A1A1A",
"9.	c #1C1C1C",
"0.	c #6B6B6B",
"a.	c #6C6C6C",
"b.	c #767676",
"c.	c #777777",
"d.	c #797979",
"e.	c #7A7A7A",
"f.	c #7B7B7B",
"g.	c #7C7C7C",
"h.	c #7D7D7D",
"i.	c #7E7E7E",
"j.	c #808080",
"k.	c #151515",
"l.	c #171717",
"m.	c #1C1C1C",
"n.	c #1E1E1E",
"o.	c #505050",
"p.	c #838383",
"q.	c #848484",
"r.	c #232323",
"s.	c #393939",
"t.	c #626262",
"u.	c #676767",
"v.	c #686868",
"w.	c #6F6F6F",
"x.	c #707070",
"y.	c #565656",
"z.	c #626262",
"A.	c #636363",
"B.	c #696969",
"C.	c #888888",
"D.	c #979797",
"E.	c #989898",
"F.	c #999999",
"G.	c #9A9A9A",
"H.	c #0C0C0C",
"I.	c #0D0D0D",
"J.	c #0E0E0E",
"K.	c #0F0F0F",
"L.	c #101010",
"M.	c #111111",
"N.	c #121212",
"O.	c #131313",
"P.	c #141414",
"Q.	c #151515",
"R.	c #161616",
"S.	c #171717",
"T.	c #181818",
"U.	c #191919",
"V.	c #1A1A1A",
"W.	c #7F7F7F",
"X.	c #656565",
"Y.	c #707070",
"Z.	c #9E9E9E",
"`.	c #606060",
" +	c #616161",
".+	c #6E6E6E",
"++	c #6F6F6F",
"@+	c #707070",
"#+	c #7C7C7C",
"$+	c #B1B1B1",
"%+	c #B2B2B2",
"&+	c #6F6F6F",
"*+	c #717171",
"=+	c #828282",
"-+	c #848484",
";+	c #898989",
">+	c #A9A9A9",
",+	c #ABABAB",
"'+	c #ADADAD",
")+	c #B5B5B5",
"!+	c #BABABA",
"~+	c #C3C3C3",
"{+	c #D2D2D2",
"]+	c #D7D7D7",
"^+	c #D9D9D9",
"/+	c #DBDBDB",
"(+	c #DDDDDD",
"_+	c #DEDEDE",
":+	c #CECECE",
"<+	c #D2D2D2",
"[+	c #D8D8D8",
"}+	c #DCDCDC",
"|+	c #DEDEDE",
"1+	c #E2E2E2",
"2+	c #ECECEC",
"3+	c #D4D4D4",
"4+	c #DADADA",
"5+	c #E9E9E9",
"6+	c #EEEEEE",
"7+	c #F3F3F3",
"8+	c #DCDCDC",
"9+	c #DEDEDE",
"0+	c #E0E0E0",
"a+	c #E4E4E4",
"b+	c #E6E6E6",
"c+	c #E8E8E8",
"d+	c #EAEAEA",
"e+	c #ECECEC",
"f+	c #EEEEEE",
"g+	c #F0F0F0",
"h+	c #F2F2F2",
"i+	c #F4F4F4",
"j+	c #F6F6F6",
"k+	c #F8F8F8",
"l+	c #FAFAFA",
"m+	c #FCFCFC",
"n+	c #FEFEFE",
"o+	c #FFFFFF",
"                                                                                                                                ",
"                                                                                                                                ",
"                                                                                                                                ",
"                                                                                                                                ",
"            { < [ [ [ [ [ [ [ [ [ [ [ [ [ } } } } } } } } } } } } } } } } } } } } } } } } } [ [ [ [ [ [ [ [ [ [ < {             ",
"          4 W.D.D.D.E.E.E.F.F.F.F.F.F.F.F.F.F.F.G.G.G.G.G.G.G.G.G.G.G.G.G.G.G.G.G.G.F.F.F.F.F.F.F.F.F.F.F.F.E.E.D.W.5           ",
"        ~ w.j.2.2.3.3.3.4.4.4.5.5.5.5.5.5.5.5.6.6.6.6.6.6.6.6.6.6.6.6.6.6.6.6.6.6.6.6.6.5.5.5.5.5.5.5.5.4.4.4.3.3.j.x.!         ",
"        _ p.2.S.S.S.S.T.T.T.T.T.T.U.U.U.U.U.U.U.U.U.U.U.V.V.V.V.V.V.V.V.V.V.U.U.U.U.U.U.U.U.U.U.U.T.T.T.T.T.T.T.S.3.q.:         ",
"        3 h.1.S.r r s s s t t t u u u u v v v v v v w w w w w w w w w w w w w w v v v v v v u u u u t t t t s s S.2.i.3         ",
"        2 h.1.R.q r r r s s s t t t t u u u u u v v v v v v v v v v v v v v v v v v u u u u u t t t t s s s s r S.2.h.3         ",
"        2 h.|.R.q q q r r r s s s s t t t t t u u u u u u u u u u u u u u u u u u u u u t t t t t s s s r r r r R.1.h.2         ",
"        2 g.|.R.p q q q q r r r r s s s s t t t t t t t t t u u u u u u t t t t t t t t t s s s s s r r r r q q R.|.h.2         ",
"        2 f.|.Q.p p p p q q q r r r r r s s s s s s s t t t t t t t t t t t t s s s s s s s r r r r r q q q q p R.|.g.2         ",
"        2 f.}.Q.o o o p p p q q q q q r r r r r r s s s s s s s s s s s s s s s s s r r r r r r q q q q p p p p Q.|.f.2         ",
"        2 e.}.Q.n n o o o p p p p q q q q q q r r r r r r r r r r r r r r r r r r r r q q q q q q p p p p o o o Q.}.f.2         ",
"        2 e.[.P.m n n n o o o o p p p p p q q q q q q q q q q q q q q q q q q q q q q q q p p p p p o o o o n n Q.}.e.2         ",
"        2 d.[.P.m m m n n n n o K o+K o p p p p p p p p q q q q q q q q q q p p p p p p p p p o o o o n n n n m P.[.e.2         ",
"        2 d.[.P.l m m m m m #.$+(+n+2+]+%+c.s o o p p p p p p p p p p p p p p p p o o o o o o o n n n n n m m m P.[.d.2         ",
"        2 d.[.P.l l l l m 0.k+m+m+m+m+m+m+_+U o o o o o o o o o o o o o o o o o o o o n n n n n n m m m m m m l P.[.d.2         ",
"        2 d.<.P.l l l l J /+l+7+=+l+X.;+~+#+T n n n n n n n n n n n n n n n n n n n n n n m m m m m m m l l l l P.[.d.2         ",
"        2 d.<.O.k k l l S 6+k+[+-.k+@.*.9.=.K m m m m m m m n n n n n n n m m m m m m m m m m m l l l l l l l l P.<.d.2         ",
"        1 c.<.O.k k k k Q !+j+j+{+j+Z J S S l l m m m m m m m m m m m m m m m m m m m l l l l l l l l l l l k k O.<.d.2         ",
"        1 c.:.O.k k k k R s.[+i+i+i+^+C.D l l l l l l l l l l l l l l l l l l l l l l l l l l l l l k k k k k k O.<.c.1         ",
"        1 c.:.O.j j j k B +.r.-+}+h+h+h+1+'.l l l l l l l l l l l l l l l l l l l l l l l l k k k k k k k k k k O.:.c.1         ",
"        1 b.:.O.j j j j j z P &.n.g+:+g+g+5+` k k k k k k l l l l l l l l k k k k k k k k k k k k k k k j j j j O.:.c.1         ",
"        1 b._.N.i j j j j C j I Y f+8.>+f+f+B.k k k k k k k k k k k k k k k k k k k k k k k k k j j j j j j j j O._.b.1         ",
"        1 b._.N.i i i i Q |+Z.a.;.e+u.<+e+e+o.A k k k k k k k k k k k k k k k k k k j j j j j j j j j j j j i i N._.b.1         ",
"        1 b._.N.i i i i X d+d+d+d+d+d+d+d+,+..A j j j j j j j j j j j j j j j j j j j j j j j j j j i i i i i i N._.b.1         ",
"        1 b._.N.h h i i X .+'+3+b+c+4+)+++,.Q j j j j j j j j j j j j j j j j j j j j j j i i i i i i i i i i i N._.b.1         ",
"        1 4._.N.h h h h O $.>.l.m.b+l.7.%.O h i i i i i i i i i i i i i i i i i i i i i i i i i i i i i i h h h N._.4.1         ",
"        1 3.(.M.h h h h h x G O W a+X H y i i i i i i i i i i i i i i i i i i i i i i i i i i i h h h h h h h h N._.3.1         ",
"        1 3.(.M.g g g g h h h h W k.W h h h h h h i i i i i i i i i i i i i i i i h h h h h h h h h h h h h h g M.(.3.1         ",
"        1 2.(.M.g g g g g g g g G N G h h h h h h G 0+0+0+0+0+0+0+0+0+0+0+G h h h h h h h h h h h h h g g g g g M.(.3.1         ",
"        1 2./.M.f f g g g g g g g g g g g h h h h W 9+9+9+9+9+9+9+9+9+9+9+W h h h h h h h g g g g g g g g g g g M./.2.1         ",
"        1 2./.M.f f f f f g g g g g g g g g g g g V 8+8+8+8+8+8+8+8+8+8+8+V g g g g g g g g g g g g g g g f f f M./.2.1         ",
"        1 2./.L.f f f f f f f f f f g g g g g g g V k.k.k.k.k.k.k.k.k.k.k.V g g g g g g g g g g f f f f f f f f M./.2.1         ",
"        1 2./.L.e e e f f f f f f f f f f f f f f E M M M M M M M M M M M F g g f f f f f f f f f f f f f f f e L./.2.1         ",
"        | |./.L.e e e e e e e e f f f f f f f f f f f f f f f f f f f f f f f f f f f f f f f f f f f e e e e e L./.1.1         ",
"        | |.^.L.d e e e e e e e e e e e e e f f f f f f f f f f f f f f f f f f f f f f f e e e e e e e e e e e L.^.|.|         ",
"        | |.^.L.d d d d d e e e e e e e e e e e e e e e e e e e e e e e e e e e e e e e e e e e e e e e e d d d L.^.|.|         ",
"        | |.].L.d d d d d d d d d d d e e e e e e e e e e e e e e e e e e e e e e e e e e e e e d d d d d d d d L.^.|.|         ",
"        | |.].K.c c c d d d d d d d d d d d d d d d d d e e e e e e e e e e d d d d d d d d d d d d d d d d d c K.].|.|         ",
"        | |.].K.c c c c c c c c d d d d d d d d d d d d d d d d d d d d d d d d d d d d d d d d d d d c c c c c K.].|.|         ",
"        | }.].K.b c c c c c c c c c c c c c c d d d d d d d d d d d d d d d d d d d d d c c c c c c c c c c c c K.].}.|         ",
"        | }.].K.b b b b b c c c c c c c c c c c c c c c c c c c c c c c c c c c c c c c c c c c c c c c c b b b K.].}.|         ",
"        | [.{.K.b b b b b b b b b b b c c c c c c c c c c c c c c c c c c c c c c c c c c c c b b b b b b b b b K.].}.|         ",
"        | [.{.J.a a a b b b b b b b b b b b b b b b b b b b b b b b b b b b b b b b b b b b b b b b b b b b b b J.{.[.|         ",
"        | [.{.J.a a a a a a a a b b b b b b b b b b b b b b b b b b b b b b b b b b b b b b b b b b a a a a a a J.{.[.|         ",
"        | [.~.J.a a a a a a a a a a a a a a a a b b b b b b b b b b b b b b b b b b b a a a a a a a a a a a a a J.{.[.|         ",
"        | [.~.J.0 0 0 0 0 a a a a a a a a a a a a a a a a a a a a a a a a a a a a a a a a a a a a a a a a 0 0 0 J.~.[.|         ",
"        | <.~.J.0 0 0 0 0 0 0 0 0 0 0 0 a a a a a a a a a a a a a a a a a a a a a a a a a a a 0 0 0 0 0 0 0 0 0 J.~.[.|         ",
"        | <.!.I.9 9 9 0 0 0 0 0 0 0 0 0 0 0 0 0 0 0 0 0 0 0 0 0 0 0 0 0 0 0 0 0 0 0 0 0 0 0 0 0 0 0 0 0 0 0 0 0 I.!.<.|         ",
"        | <.!.I.9 9 9 9 9 9 9 9 0 0 0 0 0 0 0 0 0 0 0 0 0 0 0 0 0 0 0 0 0 0 0 0 0 0 0 0 0 0 0 0 0 0 9 9 9 9 9 9 I.!.<.|         ",
"        | _.!.I.9 9 9 9 9 9 9 9 9 9 9 9 9 9 9 9 9 0 0 0 0 0 0 0 0 0 0 0 0 0 0 0 0 9 9 9 9 9 9 9 9 9 9 9 9 9 9 9 I.!._.|         ",
"        | _.!.I.8 8 8 8 8 9 9 9 9 9 9 9 9 9 9 9 9 9 9 9 9 9 9 9 9 9 9 9 9 9 9 9 9 9 9 9 9 9 9 9 9 9 9 9 9 8 8 8 I.!._.|         ",
"        | _.!.I.8 8 8 8 8 8 8 8 8 8 8 8 9 9 9 9 9 9 9 9 9 9 9 9 9 9 9 9 9 9 9 9 9 9 9 9 9 9 8 8 8 8 8 8 8 8 8 8 I.!._.|         ",
"        ( (.).H.H.H.H.I.I.I.I.I.I.I.I.I.I.I.I.I.I.I.I.I.I.I.I.I.I.I.I.I.I.I.I.I.I.I.I.I.I.I.I.I.I.I.I.I.I.I.I.I.H.).(.(         ",
"        ] y.u.t.z.A.A.A.A.A.A.A.A.A.A.A.A.A.A.A.A.A.A.A.A.A.A.A.A.A.A.A.A.A.A.A.A.A.A.A.A.A.A.A.A.A.A.A.A.A.A.z.t.v.y.]         ",
"          7 `.Y.@+@+&+&+&+&+&+&+&+&+&+&+&+&+&+&+&+&+&+*+*+*+*+*+*+*+*+*+*+*+*+&+&+&+&+&+&+&+&+&+&+&+&+&+&+&+@+@+Y. +7           ",
"            / 6 L L  . . . . . . . . . . . . . . . . . . . . . . . . . . . . . . . . . . . . . . . . . . . .L L 6 ^             ",
"                                                                                                                                ",
"                                                                                                                                ",
"                                                                                                                                ",
"                                                                                                                                "};
